<!DOCTYPE svg PUBLIC "-//W3C//DTD SVG 1.1//EN" "http://www.w3.org/Graphics/SVG/1.1/DTD/svg11.dtd">

<!-- Uploaded to: SVG Repo, www.svgrepo.com, Transformed by: SVG Repo Mixer Tools -->
<svg fill="#000000" width="800px" height="800px" viewBox="0 0 24 24" id="cashier-machine-left" data-name="Line Color" xmlns="http://www.w3.org/2000/svg" class="icon line-color">

<g id="SVGRepo_bgCarrier" stroke-width="0"/>

<g id="SVGRepo_tracerCarrier" stroke-linecap="round" stroke-linejoin="round"/>

<g id="SVGRepo_iconCarrier">

<path id="secondary" d="M13,4V6a1,1,0,0,1-1,1H6A1,1,0,0,1,5,6V4A1,1,0,0,1,6,3h6A1,1,0,0,1,13,4ZM9,11V7" style="fill: none; stroke: #707487; stroke-linecap: round; stroke-linejoin: round; stroke-width: 2;"/>

<path id="primary" d="M3,17v3a1,1,0,0,0,1,1H20a1,1,0,0,0,1-1V17l-1.77-5.32a1,1,0,0,0-.95-.68H5.72a1,1,0,0,0-1,.68Zm0,0v3a1,1,0,0,0,1,1H20a1,1,0,0,0,1-1V17Z" style="fill: none; stroke: #707487; stroke-linecap: round; stroke-linejoin: round; stroke-width: 2;"/>

</g>

</svg>