<?xml version="1.0" encoding="iso-8859-1"?>
<!-- Uploaded to: SVG Repo, www.svgrepo.com, Generator: SVG Repo Mixer Tools -->
<svg version="1.1" id="Layer_1" xmlns="http://www.w3.org/2000/svg" xmlns:xlink="http://www.w3.org/1999/xlink" 
	 viewBox="0 0 512 512" xml:space="preserve">
<rect x="362.16" y="87.914" style="fill:#5B5D6E;" width="35.387" height="70.773"/>
<rect x="362.16" y="87.914" style="fill:#464655;" width="35.387" height="35.387"/>
<path style="fill:#D5DCED;" d="M459.473,149.84H52.527c-9.772,0-17.693,7.921-17.693,17.693v238.86h442.333v-238.86
	C477.166,157.761,469.245,149.84,459.473,149.84z"/>
<path style="fill:#B4E66E;" d="M432.933,229.46H264.847c-4.886,0-8.847-3.961-8.847-8.847v-26.54c0-4.886,3.961-8.847,8.847-8.847
	h168.086c4.886,0,8.847,3.961,8.847,8.847v26.54C441.78,225.499,437.819,229.46,432.933,229.46z"/>
<path style="fill:#C7CFE2;" d="M96.76,149.84H52.527c-9.771,0-17.693,7.921-17.693,17.693v238.86h44.233v-238.86
	C79.067,157.761,86.989,149.84,96.76,149.84z"/>
<path style="fill:#707487;" d="M486.013,503.706H25.987c-4.886,0-8.847-3.961-8.847-8.847v-88.467c0-4.886,3.961-8.847,8.847-8.847
	h460.026c4.886,0,8.847,3.961,8.847,8.847v88.467C494.86,499.745,490.898,503.706,486.013,503.706z"/>
<circle style="fill:#C7CFE2;" cx="256" cy="450.626" r="17.693"/>
<path style="fill:#B4E66E;" d="M300.233,96.76h159.24c9.772,0,17.693-7.921,17.693-17.693v-53.08
	c0-9.772-7.921-17.693-17.693-17.693h-159.24c-9.772,0-17.693,7.921-17.693,17.693v53.08C282.54,88.839,290.461,96.76,300.233,96.76
	z"/>
<g>
	<path style="fill:#959CB5;" d="M282.54,300.233h-8.847c-9.772,0-17.693-7.921-17.693-17.693l0,0
		c0-9.772,7.921-17.693,17.693-17.693h8.847c9.772,0,17.693,7.921,17.693,17.693l0,0
		C300.233,292.312,292.312,300.233,282.54,300.233z"/>
	<path style="fill:#959CB5;" d="M353.313,300.233h-8.847c-9.772,0-17.693-7.921-17.693-17.693l0,0
		c0-9.772,7.921-17.693,17.693-17.693h8.847c9.772,0,17.693,7.921,17.693,17.693l0,0
		C371.006,292.312,363.085,300.233,353.313,300.233z"/>
</g>
<path style="fill:#FF507D;" d="M424.086,300.233h-8.847c-9.772,0-17.693-7.921-17.693-17.693l0,0
	c0-9.772,7.921-17.693,17.693-17.693h8.847c9.772,0,17.693,7.921,17.693,17.693l0,0C441.78,292.312,433.859,300.233,424.086,300.233
	z"/>
<path style="fill:#959CB5;" d="M282.54,362.16h-8.847c-9.772,0-17.693-7.921-17.693-17.693l0,0c0-9.772,7.921-17.693,17.693-17.693
	h8.847c9.772,0,17.693,7.921,17.693,17.693l0,0C300.233,354.239,292.312,362.16,282.54,362.16z"/>
<g>
	<path style="fill:#7F8499;" d="M185.227,300.233h-8.847c-9.772,0-17.693-7.921-17.693-17.693l0,0
		c0-9.772,7.921-17.693,17.693-17.693h8.847c9.772,0,17.693,7.921,17.693,17.693l0,0
		C202.92,292.312,194.999,300.233,185.227,300.233z"/>
	<path style="fill:#7F8499;" d="M185.227,362.16h-8.847c-9.772,0-17.693-7.921-17.693-17.693l0,0
		c0-9.772,7.921-17.693,17.693-17.693h8.847c9.772,0,17.693,7.921,17.693,17.693l0,0C202.92,354.239,194.999,362.16,185.227,362.16z
		"/>
	<path style="fill:#7F8499;" d="M114.454,300.233h-8.847c-9.772,0-17.693-7.921-17.693-17.693l0,0
		c0-9.772,7.921-17.693,17.693-17.693h8.847c9.772,0,17.693,7.921,17.693,17.693l0,0
		C132.147,292.312,124.226,300.233,114.454,300.233z"/>
	<path style="fill:#7F8499;" d="M114.454,362.16h-8.847c-9.772,0-17.693-7.921-17.693-17.693l0,0
		c0-9.772,7.921-17.693,17.693-17.693h8.847c9.772,0,17.693,7.921,17.693,17.693l0,0C132.147,354.239,124.226,362.16,114.454,362.16
		z"/>
</g>
<path style="fill:#959CB5;" d="M353.313,362.16h-8.847c-9.772,0-17.693-7.921-17.693-17.693l0,0c0-9.772,7.921-17.693,17.693-17.693
	h8.847c9.772,0,17.693,7.921,17.693,17.693l0,0C371.006,354.239,363.085,362.16,353.313,362.16z"/>
<path style="fill:#C8FF82;" d="M424.086,362.16h-8.847c-9.772,0-17.693-7.921-17.693-17.693l0,0c0-9.772,7.921-17.693,17.693-17.693
	h8.847c9.772,0,17.693,7.921,17.693,17.693l0,0C441.78,354.239,433.859,362.16,424.086,362.16z"/>
<path style="fill:#5B5D6E;" d="M114.454,477.166c-29.316,0-53.08-23.764-53.08-53.08v-26.54H25.987
	c-4.886,0-8.847,3.961-8.847,8.847v88.467c0,4.886,3.961,8.847,8.847,8.847h460.026c4.886,0,8.847-3.961,8.847-8.847v-17.693
	H114.454z"/>
<polygon style="fill:#E4EAF8;" points="182.278,79.067 161.636,70.22 140.994,79.067 120.352,70.22 99.711,79.067 79.068,70.22 
	79.068,202.92 202.92,202.92 202.92,70.22 "/>
<g>
	<polygon style="fill:#C8FF82;" points="291.387,229.46 326.773,185.227 371.006,185.227 335.62,229.46 	"/>
	<polygon style="fill:#C8FF82;" points="353.313,229.46 388.7,185.227 415.24,185.227 379.853,229.46 	"/>
</g>
<path d="M486.013,389.253h-0.553V167.533c0-14.329-11.658-25.987-25.987-25.987H405.84v-36.492h53.633
	c14.329,0,25.987-11.658,25.987-25.987v-53.08C485.46,11.658,473.802,0,459.473,0h-159.24c-14.329,0-25.987,11.658-25.987,25.987
	v53.08c0,14.329,11.658,25.987,25.987,25.987h53.633v36.492H211.214V70.22c0-2.788-1.401-5.39-3.728-6.924
	c-2.328-1.535-5.27-1.798-7.833-0.699l-17.375,7.447l-17.375-7.447c-2.087-0.895-4.448-0.895-6.534,0l-17.376,7.446l-17.374-7.447
	c-2.086-0.895-4.448-0.895-6.534,0l-17.375,7.447l-17.375-7.447c-2.562-1.099-5.506-0.836-7.833,0.699s-3.728,4.136-3.728,6.924
	v71.327H52.527c-14.329,0-25.987,11.658-25.987,25.987v221.719h-0.553c-9.452,0-17.14,7.689-17.14,17.14v88.467
	c0,9.452,7.689,17.14,17.14,17.14h460.026c9.452,0,17.14-7.689,17.14-17.14v-88.467
	C503.153,396.942,495.464,389.253,486.013,389.253z M290.834,79.067v-53.08c0-5.183,4.217-9.4,9.4-9.4h159.24
	c5.183,0,9.4,4.217,9.4,9.4v53.08c0,5.183-4.217,9.4-9.4,9.4h-159.24C295.05,88.467,290.834,84.25,290.834,79.067z M370.454,105.054
	h18.799v36.492h-18.799V105.054z M96.443,86.691c2.087,0.895,4.448,0.895,6.534,0l17.375-7.447l17.374,7.447
	c2.086,0.895,4.448,0.895,6.534,0l17.375-7.447l17.375,7.447c2.087,0.895,4.448,0.895,6.534,0l9.081-3.893v111.828H87.362V82.798
	L96.443,86.691z M486.566,494.86c0,0.305-0.248,0.553-0.553,0.553H25.987c-0.305,0-0.553-0.248-0.553-0.553v-88.467
	c0-0.305,0.248-0.553,0.553-0.553h362.716c4.58,0,8.294-3.713,8.294-8.294s-3.713-8.294-8.294-8.294H43.127V167.533
	c0-5.183,4.217-9.4,9.4-9.4h18.247v36.492H70.22c-4.58,0-8.294,3.713-8.294,8.294s3.713,8.294,8.294,8.294h141.546
	c4.58,0,8.294-3.713,8.294-8.294s-3.713-8.294-8.294-8.294h-0.553v-36.492h248.259c5.183,0,9.4,4.217,9.4,9.4v221.719h-44.786
	c-4.58,0-8.294,3.713-8.294,8.294s3.713,8.294,8.294,8.294h61.927c0.305,0,0.553,0.248,0.553,0.553V494.86z"/>
<path d="M256,424.639c-14.329,0-25.987,11.658-25.987,25.987s11.658,25.987,25.987,25.987s25.987-11.658,25.987-25.987
	S270.329,424.639,256,424.639z M256,460.026c-5.183,0-9.4-4.217-9.4-9.4s4.217-9.4,9.4-9.4c5.183,0,9.4,4.217,9.4,9.4
	S261.183,460.026,256,460.026z"/>
<path d="M114.455,175.827h53.079c4.58,0,8.294-3.713,8.294-8.294s-3.713-8.294-8.294-8.294h-53.079c-4.58,0-8.294,3.713-8.294,8.294
	S109.874,175.827,114.455,175.827z"/>
<path d="M158.692,140.441h8.841c4.58,0,8.294-3.713,8.294-8.294s-3.713-8.294-8.294-8.294h-8.841c-4.58,0-8.294,3.713-8.294,8.294
	S154.112,140.441,158.692,140.441z"/>
<path d="M114.455,140.441h8.846c4.58,0,8.294-3.713,8.294-8.294s-3.713-8.294-8.294-8.294h-8.846c-4.58,0-8.294,3.713-8.294,8.294
	S109.874,140.441,114.455,140.441z"/>
<path d="M450.073,220.613v-26.54c0-9.452-7.689-17.14-17.14-17.14h-8.844c-4.58,0-8.294,3.713-8.294,8.294s3.713,8.294,8.294,8.294
	h8.844c0.305,0,0.553,0.248,0.553,0.553v26.54c0,0.305-0.248,0.553-0.553,0.553H264.847c-0.305,0-0.553-0.248-0.553-0.553v-26.54
	c0-0.305,0.248-0.553,0.553-0.553h123.852c4.58,0,8.294-3.713,8.294-8.294s-3.713-8.294-8.294-8.294H264.847
	c-9.452,0-17.14,7.689-17.14,17.14v26.54c0,9.452,7.689,17.14,17.14,17.14h168.086C442.385,237.754,450.073,230.065,450.073,220.613
	z"/>
<path d="M282.54,256.553h-8.847c-14.329,0-25.987,11.658-25.987,25.987s11.658,25.987,25.987,25.987h8.847
	c14.329,0,25.987-11.658,25.987-25.987S296.869,256.553,282.54,256.553z M282.54,291.94h-8.847c-5.183,0-9.4-4.217-9.4-9.4
	s4.217-9.4,9.4-9.4h8.847c5.183,0,9.4,4.217,9.4,9.4C291.94,287.723,287.723,291.94,282.54,291.94z"/>
<path d="M353.313,256.553h-8.847c-14.329,0-25.987,11.658-25.987,25.987s11.658,25.987,25.987,25.987h8.847
	c14.329,0,25.987-11.658,25.987-25.987S367.643,256.553,353.313,256.553z M353.313,291.94h-8.847c-5.183,0-9.4-4.217-9.4-9.4
	s4.217-9.4,9.4-9.4h8.847c5.183,0,9.4,4.217,9.4,9.4C362.713,287.723,358.496,291.94,353.313,291.94z"/>
<path d="M424.086,256.553h-8.847c-14.329,0-25.987,11.658-25.987,25.987s11.658,25.987,25.987,25.987h8.847
	c14.329,0,25.987-11.658,25.987-25.987S438.416,256.553,424.086,256.553z M424.086,291.94h-8.847c-5.183,0-9.4-4.217-9.4-9.4
	s4.217-9.4,9.4-9.4h8.847c5.183,0,9.4,4.217,9.4,9.4C433.486,287.723,429.269,291.94,424.086,291.94z"/>
<path d="M282.54,318.479h-8.847c-14.329,0-25.987,11.658-25.987,25.987s11.658,25.987,25.987,25.987h8.847
	c14.329,0,25.987-11.658,25.987-25.987S296.869,318.479,282.54,318.479z M282.54,353.866h-8.847c-5.183,0-9.4-4.217-9.4-9.4
	s4.217-9.4,9.4-9.4h8.847c5.183,0,9.4,4.217,9.4,9.4S287.723,353.866,282.54,353.866z"/>
<path d="M185.227,256.553h-8.847c-14.329,0-25.987,11.658-25.987,25.987s11.658,25.987,25.987,25.987h8.847
	c14.329,0,25.987-11.658,25.987-25.987S199.556,256.553,185.227,256.553z M185.227,291.94h-8.847c-5.183,0-9.4-4.217-9.4-9.4
	s4.217-9.4,9.4-9.4h8.847c5.183,0,9.4,4.217,9.4,9.4C194.626,287.723,190.41,291.94,185.227,291.94z"/>
<path d="M185.227,318.479h-8.847c-14.329,0-25.987,11.658-25.987,25.987s11.658,25.987,25.987,25.987h8.847
	c14.329,0,25.987-11.658,25.987-25.987S199.556,318.479,185.227,318.479z M185.227,353.866h-8.847c-5.183,0-9.4-4.217-9.4-9.4
	s4.217-9.4,9.4-9.4h8.847c5.183,0,9.4,4.217,9.4,9.4S190.41,353.866,185.227,353.866z"/>
<path d="M114.454,256.553h-8.847c-14.329,0-25.987,11.658-25.987,25.987c0,14.329,11.658,25.987,25.987,25.987h8.847
	c14.329,0,25.987-11.658,25.987-25.987S128.783,256.553,114.454,256.553z M114.454,291.94h-8.847c-5.183,0-9.4-4.217-9.4-9.4
	s4.217-9.4,9.4-9.4h8.847c5.183,0,9.4,4.217,9.4,9.4C123.853,287.723,119.637,291.94,114.454,291.94z"/>
<path d="M114.454,318.479h-8.847c-14.329,0-25.987,11.658-25.987,25.987s11.658,25.987,25.987,25.987h8.847
	c14.329,0,25.987-11.658,25.987-25.987S128.783,318.479,114.454,318.479z M114.454,353.866h-8.847c-5.183,0-9.4-4.217-9.4-9.4
	s4.217-9.4,9.4-9.4h8.847c5.183,0,9.4,4.217,9.4,9.4S119.637,353.866,114.454,353.866z"/>
<path d="M353.313,318.479h-8.847c-14.329,0-25.987,11.658-25.987,25.987s11.658,25.987,25.987,25.987h8.847
	c14.329,0,25.987-11.658,25.987-25.987S367.643,318.479,353.313,318.479z M353.313,353.866h-8.847c-5.183,0-9.4-4.217-9.4-9.4
	s4.217-9.4,9.4-9.4h8.847c5.183,0,9.4,4.217,9.4,9.4S358.496,353.866,353.313,353.866z"/>
<path d="M450.073,344.467c0-14.329-11.658-25.987-25.987-25.987h-8.847c-14.329,0-25.987,11.658-25.987,25.987
	s11.658,25.987,25.987,25.987h8.847C438.416,370.454,450.073,358.796,450.073,344.467z M405.84,344.467c0-5.183,4.217-9.4,9.4-9.4
	h8.847c5.183,0,9.4,4.217,9.4,9.4s-4.217,9.4-9.4,9.4h-8.847C410.057,353.866,405.84,349.65,405.84,344.467z"/>
<path d="M335.62,44.233h-17.693c-4.58,0-8.294,3.713-8.294,8.294s3.713,8.294,8.294,8.294h17.693c4.58,0,8.294-3.713,8.294-8.294
	S340.2,44.233,335.62,44.233z"/>
<path d="M424.086,60.821h17.693c4.58,0,8.294-3.713,8.294-8.294s-3.713-8.294-8.294-8.294h-17.693c-4.58,0-8.294,3.713-8.294,8.294
	S419.506,60.821,424.086,60.821z"/>
<path d="M371.006,60.821H388.7c4.58,0,8.294-3.713,8.294-8.294s-3.713-8.294-8.294-8.294h-17.693c-4.58,0-8.294,3.713-8.294,8.294
	S366.426,60.821,371.006,60.821z"/>
</svg>